<svg width="18" height="18" viewBox="0 0 18 18" fill="none" xmlns="http://www.w3.org/2000/svg">
<path fill-rule="evenodd" clip-rule="evenodd" d="M10.5 2.625C10.5 3.45 9.825 4.125 9 4.125C8.175 4.125 7.5 3.45 7.5 2.625C7.5 1.8 8.175 1.125 9 1.125C9.825 1.125 10.5 1.8 10.5 2.625ZM4.125 17.25L6.1875 6.675L4.875 7.2375V9.75H3.375V6.225L7.3125 4.6125C7.5 4.5375 7.6875 4.5 7.875 4.5C8.4 4.5 8.8875 4.7625 9.15 5.2125L9.8625 6.4125C10.5375 7.5 11.7375 8.25 13.125 8.25V9.75C11.475 9.75 10.0125 9 9.0375 7.8L8.5875 10.05L10.125 11.5875V17.25H8.625V12.75L7.0125 11.25L5.7 17.25H4.125ZM14.25 7.11209H13.5V17.25H14.25V7.11209Z" fill="#656C6C"/>
</svg>
