<svg width="14" height="14" viewBox="0 0 14 14" fill="none" xmlns="http://www.w3.org/2000/svg">
<g clip-path="url(#clip0_1045_29884)">
<path d="M3.65861 10.3409C2.95327 9.6356 2.95327 8.48891 3.6586 7.78357L5.30852 6.13365L4.52481 5.34994L2.87489 6.99986C1.73645 8.1383 1.73645 9.98621 2.87489 11.1247C4.01334 12.2631 5.86124 12.2631 6.99968 11.1247L8.6496 9.47473L7.86589 8.69102L6.21597 10.3409C5.51064 11.0463 4.36394 11.0463 3.65861 10.3409ZM5.76225 9.06226L9.06208 5.76242L8.23712 4.93747L4.93729 8.2373L5.76225 9.06226ZM6.99968 2.87507L5.34977 4.52499L6.13348 5.3087L7.78339 3.65878C8.48873 2.95344 9.63543 2.95344 10.3408 3.65878C11.0461 4.36412 11.0461 5.51081 10.3408 6.21615L8.69085 7.86607L9.47456 8.64978L11.1245 6.99986C12.2629 5.86142 12.2629 4.01351 11.1245 2.87507C9.98603 1.73663 8.13813 1.73663 6.99968 2.87507Z" fill="#494E4E"/>
</g>
<defs>
<clipPath id="clip0_1045_29884">
<rect width="14" height="14" fill="white"/>
</clipPath>
</defs>
</svg>
