<svg width="35" height="34" viewBox="0 0 35 34" fill="none" xmlns="http://www.w3.org/2000/svg">
<path d="M17.4987 22.6663C19.0016 22.6663 20.4429 22.0693 21.5056 21.0066C22.5683 19.9439 23.1654 18.5026 23.1654 16.9997C23.1654 15.4968 22.5683 14.0554 21.5056 12.9927C20.4429 11.93 19.0016 11.333 17.4987 11.333C15.9958 11.333 14.5545 11.93 13.4918 12.9927C12.4291 14.0554 11.832 15.4968 11.832 16.9997C11.832 18.5026 12.4291 19.9439 13.4918 21.0066C14.5545 22.0693 15.9958 22.6663 17.4987 22.6663Z" stroke="#494E4E" stroke-width="3.125" stroke-linecap="round" stroke-linejoin="round"/>
<path d="M4.75 22.6667V11.3333C4.75 9.45472 5.49628 7.65304 6.82466 6.32466C8.15304 4.99628 9.95472 4.25 11.8333 4.25H23.1667C25.0453 4.25 26.847 4.99628 28.1753 6.32466C29.5037 7.65304 30.25 9.45472 30.25 11.3333V22.6667C30.25 24.5453 29.5037 26.347 28.1753 27.6753C26.847 29.0037 25.0453 29.75 23.1667 29.75H11.8333C9.95472 29.75 8.15304 29.0037 6.82466 27.6753C5.49628 26.347 4.75 24.5453 4.75 22.6667Z" stroke="#494E4E" stroke-width="3.125"/>
<path d="M25.293 9.22261L25.3071 9.20703" stroke="#494E4E" stroke-width="3.125" stroke-linecap="round" stroke-linejoin="round"/>
</svg>
