<svg width="28" height="20" viewBox="0 0 28 20" fill="none" xmlns="http://www.w3.org/2000/svg">
<path d="M22.0605 0.0722046H26.2705L25.1561 1.43423L26.2705 2.79626H22.0605V0.0722046Z" fill="#F05566"/>
<rect width="0.754717" height="7.92453" transform="matrix(-1 0 0 1 22.3066 0.0722046)" fill="#F05566"/>
<path fill-rule="evenodd" clip-rule="evenodd" d="M11.2215 1.29353C13.512 1.38933 14.6428 4.88884 15.8343 6.91656C17.2042 9.24771 18.1568 10.7719 19.0632 12.479C20.1394 14.5061 19.9318 17.0483 18.5739 17.9521C16.617 19.2547 14.4644 19.2916 11.2215 19.2916C9.00217 19.2916 7.12593 19.2916 3.99479 18.7479C1.27471 18.2756 0.540965 16.4764 0.798029 14.3094C1.0219 12.4222 2.31918 9.82178 5.16894 6.40985C6.66631 4.61712 8.93437 1.19787 11.2215 1.29353Z" fill="#10854D"/>
<path fill-rule="evenodd" clip-rule="evenodd" d="M19.7831 5.0677C17.9101 5.2966 16.8935 7.41993 15.9145 9.29183C14.7891 11.4438 14.0445 12.0615 13.2999 13.6375C12.4156 15.5088 12.5864 17.8557 13.7019 18.69C15.3552 19.9265 15.9864 19.9233 19.7437 19.9265C21.6109 19.9281 22.804 19.9657 25 19.5C27.3065 19.0109 27.3845 17.3202 27.1733 15.3197C27.0684 14.3261 26.8257 12.2054 24.4844 9.0557C23.2542 7.40074 22.5172 4.73355 19.7831 5.0677Z" fill="#1ACD77"/>
</svg>
