<svg width="18" height="19" viewBox="0 0 18 19" fill="none" xmlns="http://www.w3.org/2000/svg">
<g clip-path="url(#clip0_737_17412)">
<path d="M11.625 11H11.0287L10.8225 10.7938C11.5575 9.9425 12 8.83625 12 7.625C12 4.9325 9.8175 2.75 7.125 2.75C4.4325 2.75 2.25 4.9325 2.25 7.625C2.25 10.3175 4.4325 12.5 7.125 12.5C8.33625 12.5 9.4425 12.0575 10.2938 11.3263L10.5 11.5325V12.125L14.25 15.8675L15.3675 14.75L11.625 11ZM7.125 11C5.26125 11 3.75 9.48875 3.75 7.625C3.75 5.76125 5.26125 4.25 7.125 4.25C8.98875 4.25 10.5 5.76125 10.5 7.625C10.5 9.48875 8.98875 11 7.125 11Z" fill="#1C1C1C"/>
</g>
<defs>
<clipPath id="clip0_737_17412">
<rect width="18" height="18" fill="white" transform="translate(0 0.5)"/>
</clipPath>
</defs>
</svg>
