<svg width="18" height="18" viewBox="0 0 18 18" fill="none" xmlns="http://www.w3.org/2000/svg">
<g clip-path="url(#clip0_737_17469)">
<path d="M11.25 0.75H6.75V2.25H11.25V0.75ZM8.25 10.5H9.75V6H8.25V10.5ZM14.2687 5.53875L15.3375 4.47C15.015 4.08375 14.6625 3.73125 14.2762 3.40875L13.2075 4.4775C12.0563 3.555 10.59 3 8.99625 3C5.265 3 2.25 6.0225 2.25 9.75C2.25 13.4775 5.265 16.5 8.99625 16.5C12.7275 16.5 15.75 13.4775 15.75 9.75C15.75 8.15625 15.195 6.69375 14.2687 5.53875ZM9 15C6.10125 15 3.75 12.6488 3.75 9.75C3.75 6.85125 6.10125 4.5 9 4.5C11.8988 4.5 14.25 6.85125 14.25 9.75C14.25 12.6488 11.8988 15 9 15Z" fill="#656C6C"/>
</g>
<defs>
<clipPath id="clip0_737_17469">
<rect width="18" height="18" fill="white"/>
</clipPath>
</defs>
</svg>
