<svg width="32" height="32" viewBox="0 0 32 32" fill="none" xmlns="http://www.w3.org/2000/svg">
<path fill-rule="evenodd" clip-rule="evenodd" d="M17.6359 2V4.43513H19.6359V2H17.6359ZM29.9998 12.3639H27.5647L27.5647 14.3639H29.9998V12.3639ZM25.8685 8.03351L27.9774 6.81594L28.9774 8.54799L26.8685 9.76556L25.8685 8.03351ZM23.4519 3.02245L22.2343 5.13133L23.9664 6.13133L25.1839 4.02245L23.4519 3.02245ZM13.3055 6.13133L12.0879 4.02245L13.8199 3.02245L15.0375 5.13133L13.3055 6.13133ZM24.1533 13.3638C24.1533 14.5604 23.7764 15.6689 23.1348 16.5772C23.8562 16.632 24.5429 16.8111 25.1734 17.0931C25.7972 15.9922 26.1533 14.7196 26.1533 13.3638C26.1533 9.17971 22.7614 5.78784 18.5774 5.78784C15.5729 5.78784 12.9769 7.53678 11.752 10.0721L11.7608 10.0721C12.4987 10.0721 13.2167 10.1574 13.9055 10.3188C14.9008 8.79489 16.6215 7.78784 18.5774 7.78784C21.6569 7.78784 24.1533 10.2843 24.1533 13.3638Z" fill="url(#paint0_linear_126_5448)"/>
<path fill-rule="evenodd" clip-rule="evenodd" d="M12.5 28L12.5411 27.9999V28L12.6971 28L22.9973 28H23C23.0014 28 23.0028 28 23.0043 28C25.6983 27.9976 28 25.7147 28 22.75C28 19.7838 25.6958 17.5 23 17.5C22.2698 17.5 21.5684 17.6675 20.9337 17.9708C20.8474 17.2839 20.685 16.6218 20.4555 15.9939L20.4577 15.993C19.2369 12.6095 16.0973 10.25 12.5 10.25C7.87115 10.25 4 14.1567 4 19.125C4 24.0933 7.87115 28 12.5 28ZM23.2414 29.9958C26.9956 29.864 30 26.6704 30 22.75C30 18.7459 26.866 15.5 23 15.5C22.8017 15.5 22.6053 15.5085 22.4111 15.5253C20.9766 11.2883 17.0809 8.25 12.5 8.25C6.70101 8.25 2 13.1189 2 19.125C2 25.1311 6.70101 30 12.5 30C12.5658 30 12.6315 29.9994 12.6971 29.9981V30H22.9949C22.9966 30 22.9983 30 23 30C23.0017 30 23.0034 30 23.0051 30H23.2414V29.9958Z" fill="url(#paint1_linear_126_5448)"/>
<path fill-rule="evenodd" clip-rule="evenodd" d="M17.6359 2V4.43513H19.6359V2H17.6359ZM29.9998 12.3639H27.5647L27.5647 14.3639H29.9998V12.3639ZM25.8685 8.03351L27.9774 6.81594L28.9774 8.54799L26.8685 9.76556L25.8685 8.03351ZM23.4519 3.02245L22.2343 5.13133L23.9664 6.13133L25.1839 4.02245L23.4519 3.02245ZM13.3055 6.13133L12.0879 4.02245L13.8199 3.02245L15.0375 5.13133L13.3055 6.13133ZM24.1533 13.3638C24.1533 14.5604 23.7764 15.6689 23.1348 16.5772C23.8562 16.632 24.5429 16.8111 25.1734 17.0931C25.7972 15.9922 26.1533 14.7196 26.1533 13.3638C26.1533 9.17971 22.7614 5.78784 18.5774 5.78784C15.5729 5.78784 12.9769 7.53678 11.752 10.0721L11.7608 10.0721C12.4987 10.0721 13.2167 10.1574 13.9055 10.3188C14.9008 8.79489 16.6215 7.78784 18.5774 7.78784C21.6569 7.78784 24.1533 10.2843 24.1533 13.3638Z" fill="url(#paint2_linear_126_5448)"/>
<path fill-rule="evenodd" clip-rule="evenodd" d="M12.5 28L12.5411 27.9999V28L12.6971 28L22.9973 28H23C23.0014 28 23.0028 28 23.0043 28C25.6983 27.9976 28 25.7147 28 22.75C28 19.7838 25.6958 17.5 23 17.5C22.2698 17.5 21.5684 17.6675 20.9337 17.9708C20.8474 17.2839 20.685 16.6218 20.4555 15.9939L20.4577 15.993C19.2369 12.6095 16.0973 10.25 12.5 10.25C7.87115 10.25 4 14.1567 4 19.125C4 24.0933 7.87115 28 12.5 28ZM23.2414 29.9958C26.9956 29.864 30 26.6704 30 22.75C30 18.7459 26.866 15.5 23 15.5C22.8017 15.5 22.6053 15.5085 22.4111 15.5253C20.9766 11.2883 17.0809 8.25 12.5 8.25C6.70101 8.25 2 13.1189 2 19.125C2 25.1311 6.70101 30 12.5 30C12.5658 30 12.6315 29.9994 12.6971 29.9981V30H22.9949C22.9966 30 22.9983 30 23 30C23.0017 30 23.0034 30 23.0051 30H23.2414V29.9958Z" fill="url(#paint3_linear_126_5448)"/>
<defs>
<linearGradient id="paint0_linear_126_5448" x1="20.8759" y1="2" x2="20.8759" y2="17.0931" gradientUnits="userSpaceOnUse">
<stop stop-color="#EFC977"/>
<stop offset="1" stop-color="#E07256"/>
</linearGradient>
<linearGradient id="paint1_linear_126_5448" x1="16" y1="8.25" x2="16" y2="30" gradientUnits="userSpaceOnUse">
<stop stop-color="#B2D4F7"/>
<stop offset="1" stop-color="#D9E2F3"/>
</linearGradient>
<linearGradient id="paint2_linear_126_5448" x1="20.8759" y1="2" x2="20.8759" y2="17.0931" gradientUnits="userSpaceOnUse">
<stop stop-color="#EFC977"/>
<stop offset="1" stop-color="#E07256"/>
</linearGradient>
<linearGradient id="paint3_linear_126_5448" x1="16" y1="8.25" x2="16" y2="30" gradientUnits="userSpaceOnUse">
<stop stop-color="#B2D4F7"/>
<stop offset="1" stop-color="#D9E2F3"/>
</linearGradient>
</defs>
</svg>
